<?xml version="1.0" encoding="utf-8"?>
<!-- Uploaded to: SVG Repo, www.svgrepo.com, Generator: SVG Repo Mixer Tools -->
<svg width="800px" height="800px" viewBox="0 -0.04 20.073 20.073" xmlns="http://www.w3.org/2000/svg">
  <g id="ufo-2" transform="translate(-1.964 -2)">
    <path id="secondary" fill="#2ca9bc" d="M12,3h0a6,6,0,0,1,6,6H6a6,6,0,0,1,6-6Z"/>
    <path id="primary" d="M12,21V13m6,0,1,7m-1,0h2M5,20l1-7m0,7H4m7,1h2M18,9a6,6,0,0,0-6-6h0A6,6,0,0,0,6,9ZM4.5,9a1,1,0,0,0-1,.76l-.5,2A1,1,0,0,0,4,13H20a1,1,0,0,0,1-1.24l-.5-2a1,1,0,0,0-1-.76Z" fill="none" stroke="#000000" stroke-linecap="round" stroke-linejoin="round" stroke-width="2"/>
  </g>
</svg>